#!OML:ASF F:\VICON\USERDATA\INSTALL\rory3\rory3.ASF
:FULLY-SPECIFIED
:DEGREES
193
root 1.10872 24.1786 1.07064 2.05984 -5.68511 -1.23411
lowerback 8.50372 0.5438 -0.537765
upperback -0.742968 0.657007 -0.212788
thorax -5.55256 0.336535 -0.005616
lowerneck -11.1116 -0.39104 -6.22911
upperneck -1.9145 0.122613 6.67063
head 1.33919 0.237431 3.30093
rclavicle 1.4387e-014 -1.21259e-014
rhumerus 17.0765 16.869 -56.2269
rradius 62.5055
rwrist 9.92054
rhand -30.76 4.03256
rfingers 7.12502
rthumb -4.05134 -25.9087
lclavicle 1.4387e-014 -1.21259e-014
lhumerus 12.0572 -14.9835 61.5331
lradius 86.0891
lwrist 7.33435
lhand -27.8263 18.1434
lfingers 7.12502
lthumb -1.21815 48.1197
rfemur -3.0632 9.71618 22.0934
rtibia 24.5737
rfoot 30.57 -18.7327
rtoes 9.77405
lfemur -0.622667 0.796313 -19.2532
ltibia 20.0787
lfoot 29.0301 16.3853
ltoes 11.4818
194
root 1.09621 24.4866 1.07819 1.3358 -5.50209 -1.29596
lowerback 9.25655 0.491511 -0.60529
upperback -0.744438 0.577286 -0.156444
thorax -5.98161 0.300544 0.0949236
lowerneck -10.6855 -0.381381 -6.16573
upperneck -1.84502 0.100916 6.80993
head 1.28861 0.22266 3.33185
rclavicle 1.31695e-015 9.93923e-015
rhumerus 15.3194 16.2165 -57.6095
rradius 62.24
rwrist 9.67983
rhand -30.7229 3.60246
rfingers 7.12502
rthumb -4.01558 -26.3394
lclavicle 1.31695e-015 9.93923e-015
lhumerus 9.85588 -14.5821 62.393
lradius 85.2514
lwrist 7.02545
lhand -28.4935 17.8512
lfingers 7.12502
lthumb -1.86256 47.8228
rfemur -2.72441 10.4996 22.6644
rtibia 25.3492
rfoot 30.9149 -18.8087
rtoes 10.1461
lfemur -0.326394 0.121051 -19.2666
ltibia 20.3689
lfoot 29.3864 16.4036
ltoes 6.77069
195
root 1.09292 24.7832 1.11405 1.00792 -5.25359 -1.01989
lowerback 9.34683 0.363597 -0.871429
upperback -0.84203 0.372364 -0.207121
thorax -6.13582 0.208236 0.220068
lowerneck -10.8347 -0.353834 -6.09652
upperneck -1.00279 0.1006 6.90998
head 1.59416 0.227743 3.36637
rclavicle -1.44243e-014 3.57812e-015
rhumerus 13.7744 15.8225 -58.8485
rradius 61.6443
rwrist 9.36281
rhand -30.7369 2.49245
rfingers 7.12502
rthumb -4.02905 -27.4492
lclavicle -1.44243e-014 3.57812e-015
lhumerus 7.49935 -14.0491 63.1502
lradius 84.1664
lwrist 7.0831
lhand -28.9232 17.8009
lfingers 7.12502
lthumb -2.27749 47.7685
rfemur -2.53072 11.1984 22.7265
rtibia 25.4901
rfoot 30.7379 -18.5898
rtoes 8.12159
lfemur -0.0510182 -1.4067 -19.9015
ltibia 19.9189
lfoot 28.5204 15.785
ltoes 7.17328
196
root 1.10326 25.0742 1.18234 1.08677 -4.99288 -0.626856
lowerback 8.6596 0.202947 -1.01981
upperback -0.96842 0.142952 -0.321084
thorax -5.87653 0.0979461 0.219304
lowerneck -11.2814 -0.325398 -5.82146
upperneck 0.191178 0.0828905 6.71394
head 2.07058 0.222431 3.26834
rclavicle -4.47266e-015 -7.55382e-015
rhumerus 12.4211 15.7506 -59.793
rradius 60.5897
rwrist 8.6489
rhand -31.223 1.26144
rfingers 7.12502
rthumb -4.49849 -28.6708
lclavicle -4.47266e-015 -7.55382e-015
lhumerus 5.34014 -13.5015 63.8126
lradius 82.8291
lwrist 7.53284
lhand -29.7965 18.3212
lfingers 7.12502
lthumb -3.12089 48.2781
rfemur -2.48869 11.7947 22.525
rtibia 25.1572
rfoot 29.8924 -18.8768
rtoes 7.87473
lfemur 0.117788 -3.13716 -20.7802
ltibia 19.0178
lfoot 26.7322 15.6152
ltoes 9.22783
197
root 1.11734 25.3604 1.26733 1.61761 -4.71347 -0.307282
lowerback 7.37268 0.0791401 -1.00901
upperback -1.1877 -0.0103775 -0.420001
thorax -5.37436 0.0191602 0.13174
lowerneck -11.7108 -0.295252 -5.72748
upperneck 1.36831 0.086562 6.64367
head 2.54615 0.230343 3.25326
rclavicle 7.16867e-015 -1.03368e-014
rhumerus 10.9348 15.6114 -60.6601
rradius 59.3946
rwrist 7.82113
rhand -32.1063 1.04374
rfingers 7.12502
rthumb -5.35133 -28.8687
lclavicle 7.16867e-015 -1.03368e-014
lhumerus 3.42652 -12.9196 64.6435
lradius 81.2062
lwrist 8.06117
lhand -30.1557 19.0889
lfingers 7.12502
lthumb -3.46778 49.0405
rfemur -2.779 12.3618 22.285
rtibia 24.5074
rfoot 28.4826 -19.8107
rtoes 9.11634
lfemur -0.119954 -4.31408 -21.4402
ltibia 17.8629
lfoot 24.7008 16.958
ltoes 7.98214
198
root 1.13125 25.6379 1.35138 2.41637 -4.43155 -0.0823117
lowerback 5.90603 -0.00794341 -1.00482
upperback -1.51059 -0.109212 -0.435885
thorax -4.87836 -0.0311754 0.123644
lowerneck -11.8459 -0.306653 -5.6661
upperneck 2.16904 0.0426059 6.54717
head 2.8468 0.208187 3.22257
rclavicle 5.64673e-015 1.37161e-014
rhumerus 9.46934 15.1885 -61.5327
rradius 58.0094
rwrist 7.77445
rhand -32.5616 1.2698
rfingers 7.12502
rthumb -5.79092 -28.6311
lclavicle 5.64673e-015 1.37161e-014
lhumerus 1.682 -12.0589 65.7349
lradius 79.0023
lwrist 7.90689
lhand -28.7702 18.6217
lfingers 7.12502
lthumb -2.12977 48.5908
rfemur -3.34217 12.8224 22.0566
rtibia 23.6744
rfoot 26.9181 -20.9971
rtoes 9.57064
lfemur -0.838496 -4.62383 -21.7624
ltibia 16.8315
lfoot 23.3126 18.784
ltoes 7.58042
199
root 1.157 25.8983 1.44712 3.19218 -4.6772 -0.0802611
lowerback 4.25004 0.0604582 -0.687045
upperback -1.69475 0.0235367 -0.414561
thorax -4.13187 0.0240818 -0.0440623
lowerneck -11.8751 -0.313356 -5.43221
upperneck 2.54807 0.00119185 6.29341
head 2.98012 0.181413 3.09378
rclavicle -2.42269e-015 -6.55989e-015
rhumerus 8.2087 14.5862 -62.3474
rradius 56.5478
rwrist 8.36322
rhand -32.1732 1.12745
rfingers 7.12502
rthumb -5.41594 -28.7833
lclavicle -2.42269e-015 -6.55989e-015
lhumerus 0.278773 -11.1076 66.6367
lradius 76.6187
lwrist 7.36144
lhand -27.1444 18.5545
lfingers 7.12502
lthumb -0.559531 48.5335
rfemur -3.92713 13.1844 21.9038
rtibia 22.8083
rfoot 25.6342 -21.5852
rtoes 8.20934
lfemur -1.64481 -4.2999 -21.8859
ltibia 16.1764
lfoot 21.9649 20.5743
ltoes 7.27582
200
root 1.17236 26.1431 1.49633 3.96291 -4.50508 -0.23405
lowerback 3.24785 0.0306836 -0.323563
upperback -1.91728 0.0130442 -0.334167
thorax -3.79482 0.0101429 -0.163526
lowerneck -12.0336 -0.304956 -5.32556
upperneck 2.71255 -7.79189e-005 6.25001
head 3.06573 0.182848 3.06387
rclavicle -3.94774e-015 -5.76476e-015
rhumerus 7.00615 13.7385 -63.1399
rradius 55.1815
rwrist 9.17518
rhand -31.2517 1.14372
rfingers 7.12502
rthumb -4.52616 -28.7879
lclavicle -3.94774e-015 -5.76476e-015
lhumerus -0.858032 -10.4597 67.3047
lradius 74.4284
lwrist 7.1101
lhand -26.457 19.4189
lfingers 7.12502
lthumb 0.104319 49.3986
rfemur -4.66128 13.0923 21.9593
rtibia 22.0196
rfoot 24.7022 -21.9468
rtoes 6.84149
lfemur -2.83732 -3.59312 -21.6976
ltibia 16.062
lfoot 21.2692 20.9821
ltoes 7.85662
201
root 1.18407 26.3723 1.52372 4.49648 -4.1725 -0.314143
lowerback 2.77803 -0.0365498 -0.0925964
upperback -2.07969 -0.0618425 -0.251128
thorax -3.6972 -0.0320063 -0.202867
lowerneck -12.3037 -0.32151 -5.30531
upperneck 2.7767 -0.0191438 6.29549
head 3.14151 0.17937 3.08055
rclavicle -6.55989e-015 -7.15625e-015
rhumerus 5.92676 12.9356 -63.8483
rradius 53.7591
rwrist 9.72925
rhand -30.7387 1.63085
rfingers 7.12502
rthumb -4.03081 -28.3108
lclavicle -6.55989e-015 -7.15625e-015
lhumerus -1.90968 -9.98378 67.8991
lradius 72.4146
lwrist 7.27712
lhand -26.2435 19.9812
lfingers 7.12502
lthumb 0.310578 49.9607
rfemur -5.27927 12.9292 21.9795
rtibia 21.3714
rfoot 24.2956 -21.8725
rtoes 6.53713
lfemur -4.02677 -2.98962 -21.6102
ltibia 16.4304
lfoot 21.1107 20.7809
ltoes 8.37076
202
root 1.19218 26.5859 1.54229 4.73316 -3.74115 -0.602597
lowerback 2.63623 -0.159803 0.207373
upperback -2.11429 -0.206205 -0.039615
thorax -3.65347 -0.108719 -0.14511
lowerneck -12.1966 -0.301506 -5.31357
upperneck 2.41561 0.0205523 6.2521
head 2.9928 0.195432 3.06042
rclavicle 1.6524e-015 1.14301e-014
rhumerus 4.92314 12.3744 -64.4367
rradius 52.4783
rwrist 9.83446
rhand -31.0334 1.86424
rfingers 7.12502
rthumb -4.31539 -28.0718
lclavicle 1.6524e-015 1.14301e-014
lhumerus -3.01166 -9.44211 68.4584
lradius 70.5309
lwrist 7.40789
lhand -26.0003 19.8977
lfingers 7.12502
lthumb 0.545463 49.8768
rfemur -5.61618 12.8113 22.3043
rtibia 20.9012
rfoot 24.0344 -21.482
rtoes 6.16451
lfemur -5.08174 -2.30524 -21.2724
ltibia 17.1718
lfoot 21.3337 20.1709
ltoes 7.45342
